Coordinates
version=1
nRows=6
nColumns=40
inDegrees=yes

Units are S.I. units (second, meters, Newtons, ...)
If the header above contains a line with 'inDegrees', this indicates whether rotational values are in degrees (yes) or radians (no).

endheader
time	pelvis_tilt	pelvis_list	pelvis_rotation	pelvis_tx	pelvis_ty	pelvis_tz	hip_flexion_r	hip_adduction_r	hip_rotation_r	knee_angle_r	knee_angle_r_beta	ankle_angle_r	subtalar_angle_r	mtp_angle_r	hip_flexion_l	hip_adduction_l	hip_rotation_l	knee_angle_l	knee_angle_l_beta	ankle_angle_l	subtalar_angle_l	mtp_angle_l	lumbar_extension	lumbar_bending	lumbar_rotation	arm_flex_r	arm_add_r	arm_rot_r	elbow_flex_r	pro_sup_r	wrist_flex_r	wrist_dev_r	arm_flex_l	arm_add_l	arm_rot_l	elbow_flex_l	pro_sup_l	wrist_flex_l	wrist_dev_l
      8.00000000000000000000	     11.58472406075506633272	     -4.96570166643410182417	    179.71976625812698102891	      0.34598811398976281328	      0.75774519513935412185	     -0.61215394718819549080	     63.59738227532739074377	     -9.49442167844636308871	      7.39779495250015095564	     66.25136871788319581356	      1.15630451807983591905	     21.11528641702382103063	      0.00000000000000000000	      0.00000000000000000000	     60.18817300615387466678	    -10.06993473521464466103	    -10.60537481528261949393	     67.26538138077891915145	      1.17400237770428184092	     19.23027465489456133696	      0.00000000000000000000	      0.00000000000000000000	    -64.05403520498973080066	     -1.79427049913673375414	    -12.92797976066637311021	     62.39684432729512053584	      5.91525257289915629144	     33.97039633221379517636	      4.21019984346768705308	      9.89524005581544230381	      0.00000000000000000000	      0.00000000000000000000	     67.67570307834196796648	    -15.12296785821378541925	     71.72626478088625390228	      3.06695117241732218005	     83.28511562829334025082	      0.00000000000000000000	      0.00000000000000000000
      8.00500000000000078160	     11.63539945713703893659	     -4.97545732962811282363	    179.72120247266371961814	      0.34571906785353090363	      0.75812411230414211705	     -0.61203997741671900545	     63.58559575229335081303	     -9.51798026418634890433	      7.38581043620141652895	     66.17394202851120610376	      1.15495316742137599242	     21.08206144775835255700	      0.00000000000000000000	      0.00000000000000000000	     60.17556580751524109019	    -10.03825917871707673612	    -10.61782900975131127552	     67.19268044714689835928	      1.17273350704312906423	     19.19362116775658222423	      0.00000000000000000000	      0.00000000000000000000	    -64.04281838040856200678	     -1.77802940696559730327	    -12.92928511954333359313	     62.40543996414453431498	      5.90890161044251271960	     33.97402375442111832626	      4.22416350967482667755	      9.89249119822352263043	      0.00000000000000000000	      0.00000000000000000000	     67.68620887034238364777	    -15.10338632787082246978	     71.70644957561353294295	      3.08413123026690083606	     83.27700028146887234470	      0.00000000000000000000	      0.00000000000000000000
      8.00999999999999978684	     11.70211491843961049142	     -4.96396370968284639247	    179.71657423152515775655	      0.34539926067357989981	      0.75855891505111117112	     -0.61198931011928925372	     63.55998701255326466253	     -9.52736966234168747292	      7.34007564819053737182	     66.05252836216330081243	      1.15283409918668722227	     21.03671496194085577258	      0.00000000000000000000	      0.00000000000000000000	     60.16335538751137335112	    -10.03584114804983684621	    -10.63687584600051572181	     67.09720974485124145303	      1.17106722894887860242	     19.16315983631077557447	      0.00000000000000000000	      0.00000000000000000000	    -64.02789326491439680922	     -1.76148689304113803544	    -12.91221973152794788575	     62.41709748785017097816	      5.90158086195134323759	     33.97817163404945972616	      4.23280849937224168400	      9.88952254376281558734	      0.00000000000000000000	      0.00000000000000000000	     67.66653640812056380582	    -15.09341189887826040206	     71.68477076882960830062	      3.08910523215300658606	     83.27163849851881138875	      0.00000000000000000000	      0.00000000000000000000
      8.01500000000000056843	     11.73798530476294388336	     -4.95444088044512920277	    179.72473594616772629706	      0.34510662977167633203	      0.75893770094776025203	     -0.61202140677139948988	     63.52841581950104199450	     -9.53577484968174537983	      7.31574329189254157768	     65.98233587142692613270	      1.15160900911316188555	     21.00971636750879767419	      0.00000000000000000000	      0.00000000000000000000	     60.13196363134324684552	    -10.01858020722166031646	    -10.60980257869453424746	     67.01060711481143528090	      1.16955572791379736053	     19.13525808768237723712	      0.00000000000000000000	      0.00000000000000000000	    -64.03153070776265565200	     -1.74772408088292685591	    -12.89659239223249720396	     62.43261599128646821555	      5.90372091067268911502	     33.98503981347687386005	      4.24687091915175862766	      9.88684582340856543681	      0.00000000000000000000	      0.00000000000000000000	     67.66044008174414159384	    -15.07684338895118436596	     71.64932852312645650272	      3.09870924573974892979	     83.26198671864561617895	      0.00000000000000000000	      0.00000000000000000000
      8.01999999999999957367	     11.77801306269824621609	     -4.94381332723833288867	    179.72170673133055629478	      0.34484658161712983260	      0.75931748616465344348	     -0.61199163524414290638	     63.49856346026817988104	     -9.53943531596130078754	      7.29067487182368889620	     65.89731395496454524618	      1.15012509673453777737	     20.96879178533657750449	      0.00000000000000000000	      0.00000000000000000000	     60.11073969858290411139	    -10.02241423667859265834	    -10.62412951248808745675	     66.94037845493912186612	      1.16833000656976238041	     19.11143451717100205656	      0.00000000000000000000	      0.00000000000000000000	    -64.02899366397281255558	     -1.73703244247788157750	    -12.87956636995451908945	     62.44462277084929979765	      5.89490860690581897074	     33.99080643678301072441	      4.25056351908312013421	      9.88342042255117547711	      0.00000000000000000000	      0.00000000000000000000	     67.65807709822986737436	    -15.06617111456006874448	     71.61399478496912252012	      3.10300779069583354541	     83.25279373249260572720	      0.00000000000000000000	      0.00000000000000000000
      8.02500000000000035527	     11.81286912198990712852	     -4.96373343252939225323	    179.72473134314907383668	      0.34448722401843151486	      0.75977922898961336440	     -0.61192249018687128181	     63.45829624893983833545	     -9.57446844064767965676	      7.27873769610927290330	     65.80468474744127149734	      1.14850841207974352365	     20.93089749064562710146	      0.00000000000000000000	      0.00000000000000000000	     60.06356522381351226159	     -9.97955170017532822158	    -10.62950448615229248617	     66.84980820217209895873	      1.16674925745461433024	     19.07080138070725894295	      0.00000000000000000000	      0.00000000000000000000	    -64.03284944886604534986	     -1.73681603323536082328	    -12.88736433560211835925	     62.44027214461578978444	      5.86361096955213056958	     33.99398827606354700492	      4.24034845614835287364	      9.87674529394053024589	      0.00000000000000000000	      0.00000000000000000000	     67.62063647326034754315	    -15.03438512097661927669	     71.56420292579039710290	      3.11336559299133464052	     83.24258268358320833613	      0.00000000000000000000	      0.00000000000000000000
